<svg width="21" height="24" xmlns="http://www.w3.org/2000/svg"><g fill-rule="nonzero" fill="none"><path d="M17.323 1.809C16.21.543 14.202 0 11.63 0H4.17c-.526 0-.973.382-1.055.9L.008 20.585a.64.64 0 00.633.74h4.606l1.157-7.331-.036.23c.082-.519.526-.901 1.051-.901h2.19c4.3 0 7.666-1.745 8.65-6.793.029-.149.054-.294.076-.436-.124-.066-.124-.066 0 0 .293-1.866-.002-3.136-1.012-4.285" fill="#27346A"/><path d="M8.166 5.422a.937.937 0 01.404-.09h5.849c.693 0 1.339.044 1.929.14a8.112 8.112 0 011.178.28c.29.097.56.21.809.342.293-1.866-.002-3.136-1.012-4.285C16.21.543 14.202 0 11.63 0H4.169c-.525 0-.972.382-1.054.9L.008 20.584a.64.64 0 00.632.74h4.607l2.4-15.205a.934.934 0 01.52-.697z" fill="#27346A"/><path d="M18.247 6.53c-.984 5.05-4.354 6.798-8.658 6.798H7.398c-.526 0-.97.383-1.052.901l-1.44 9.123a.56.56 0 00.553.648h3.887c.46 0 .851-.334.923-.788l.038-.198.733-4.638.047-.256a.935.935 0 01.923-.788h.582c3.764 0 6.712-1.528 7.574-5.948.36-1.846.173-3.388-.778-4.471a3.713 3.713 0 00-1.064-.82c-.023.142-.047.287-.077.437z" fill="#2790C3"/><path d="M17.33 5.705a7.194 7.194 0 00-.466-.12 8.793 8.793 0 00-.493-.093 12.175 12.175 0 00-1.932-.14H8.585a.931.931 0 00-.923.788l-1.245 7.874-.036.23c.082-.519.526-.9 1.052-.9h2.191c4.305 0 7.675-1.746 8.66-6.793.029-.15.054-.294.076-.436a5.322 5.322 0 00-1.03-.41" fill="#1F264F"/></g></svg>