<svg width="18" height="24" xmlns="http://www.w3.org/2000/svg" xmlns:xlink="http://www.w3.org/1999/xlink"><defs><path id="a" d="M0 23.226h18V.29H0z"/></defs><g fill="none" fill-rule="evenodd"><path fill="#FFF" d="M4.32 17.385h9.987V4.575H4.32z"/><g transform="translate(0 .29)"><mask id="b" fill="#fff"><use xlink:href="#a"/></mask><path d="M6.608 15.015l.842-4.807a2.548 2.548 0 011.573-4.564V.308H2.52A2.52 2.52 0 000 2.828v12.356c-.002.233.05.463.151.673.546 1.104 2.7 4.646 8.867 7.369v-8.013a14.135 14.135 0 01-2.41-.198" fill="#E21D3E" mask="url(#b)"/><path d="M15.51.29H9.017v5.337a2.548 2.548 0 011.596 4.546l.842 4.83c-.805.141-1.62.211-2.438.21v8.001c6.16-2.711 8.32-6.265 8.866-7.368.101-.21.153-.44.151-.674V2.822A2.522 2.522 0 0015.51.29" fill="#B51E23" mask="url(#b)"/></g></g></svg>