<?xml version="1.0" encoding="UTF-8"?>
<svg width="61px" height="70px" viewBox="0 0 61 70" version="1.1" xmlns="http://www.w3.org/2000/svg" xmlns:xlink="http://www.w3.org/1999/xlink">
    <!-- Generator: Sketch 63.1 (92452) - https://sketch.com -->
    <title>noun_Institution_357409</title>
    <desc>Created with Sketch.</desc>
    <g id="Iteration-9:-Multi-Login" stroke="none" stroke-width="1" fill="none" fill-rule="evenodd">
        <g id="Research-Org_Loading" transform="translate(-687.000000, -396.000000)" fill="#153B61" fill-rule="nonzero">
            <g id="noun_Institution_357409" transform="translate(687.000000, 396.000000)">
                <g id="Group">
                    <path d="M30.5,0.299917101 L2.18961149,21.8302187 L58.8103885,21.8302187 L30.5,0.299917101 Z M0,25.1425728 L0,31.7672809 L61,31.7672809 L61,25.1425728 L0,25.1425728 Z M6.59459459,35.079635 L6.59459459,59.9222907 L14.8378378,59.9222907 L14.8378378,35.079635 L6.59459459,35.079635 Z M26.3783784,35.079635 L26.3783784,59.9222907 L34.6216216,59.9222907 L34.6216216,35.079635 L26.3783784,35.079635 Z M46.1621622,35.079635 L46.1621622,59.9222907 L54.4054054,59.9222907 L54.4054054,35.079635 L46.1621622,35.079635 Z M0,63.2346448 L0,69.8593529 L61,69.8593529 L61,63.2346448 L0,63.2346448 Z" id="Shape"></path>
                </g>
            </g>
        </g>
    </g>
</svg>