<svg width="24" height="24" xmlns="http://www.w3.org/2000/svg"><g fill-rule="nonzero" fill="none"><path d="M23.767 9.65H22.8V9.6H12v4.8h6.782c-.99 2.794-3.648 4.8-6.782 4.8a7.2 7.2 0 010-14.4c1.835 0 3.505.692 4.777 1.823L20.17 3.23A11.945 11.945 0 0012 0C5.373 0 0 5.373 0 12s5.373 12 12 12 12-5.373 12-12c0-.805-.083-1.59-.233-2.35z" fill="#FFC107"/><path d="M1.455 6.517l3.968 2.938C6.496 6.77 9.097 4.877 12.14 4.877a7.17 7.17 0 014.807 1.852l3.417-3.448C18.207 1.25 15.32 0 12.14 0 7.5 0 3.478 2.644 1.455 6.517z" fill="#FF3D00"/><path d="M12.24 24c3.13 0 5.974-1.172 8.124-3.078l-3.75-3.106a7.317 7.317 0 01-4.373 1.44c-3.152 0-5.827-1.966-6.836-4.71l-3.95 2.979C3.46 21.365 7.532 24 12.24 24z" fill="#4CAF50"/><path d="M23.76 9.506h-.996v-.051H11.636v4.944h6.988a7.441 7.441 0 01-2.527 3.443l.002-.001 3.827 3.237c-.271.246 4.074-2.971 4.074-9.151 0-.83-.085-1.638-.24-2.421z" fill="#1976D2"/></g></svg>